<svg width="51" height="50" viewBox="0 0 51 50" fill="none" xmlns="http://www.w3.org/2000/svg">
<rect width="50" height="50" rx="19" fill="#7752BE"/>
<path d="M29.1161 27.5982C29.3006 27.7768 29.3423 27.9821 29.2411 28.2143C29.1399 28.4524 28.9643 28.5714 28.7143 28.5714H25.3036L27.0982 32.8214C27.1577 32.9702 27.1577 33.1161 27.0982 33.2589C27.0387 33.4018 26.9375 33.506 26.7946 33.5714L25.2143 34.2411C25.0655 34.3006 24.9196 34.3006 24.7768 34.2411C24.6339 34.1815 24.5298 34.0804 24.4643 33.9375L22.7589 29.9018L19.9732 32.6875C19.8601 32.8006 19.7262 32.8571 19.5714 32.8571C19.5 32.8571 19.4286 32.8423 19.3571 32.8125C19.119 32.7113 19 32.5357 19 32.2857V18.8571C19 18.6071 19.119 18.4315 19.3571 18.3304C19.4286 18.3006 19.5 18.2857 19.5714 18.2857C19.7321 18.2857 19.8661 18.3423 19.9732 18.4554L29.1161 27.5982Z" fill="white"/>
</svg>
